<svg xmlns="http://www.w3.org/2000/svg" xmlns:xlink="http://www.w3.org/1999/xlink" width="500" zoomAndPan="magnify" viewBox="0 0 375 374.999991" height="500" preserveAspectRatio="xMidYMid meet" version="1.0"><defs><clipPath id="e894662e35"><path d="M 45.464844 37.5 L 354.175781 37.5 L 354.175781 346.210938 L 45.464844 346.210938 Z M 45.464844 37.5 " clip-rule="nonzero"/></clipPath><clipPath id="17ce91f05f"><path d="M 199.820312 37.5 C 114.574219 37.5 45.464844 106.605469 45.464844 191.855469 C 45.464844 277.105469 114.574219 346.210938 199.820312 346.210938 C 285.070312 346.210938 354.175781 277.105469 354.175781 191.855469 C 354.175781 106.605469 285.070312 37.5 199.820312 37.5 Z M 199.820312 37.5 " clip-rule="nonzero"/></clipPath><clipPath id="eae0a5adf7"><path d="M 45.464844 37.5 L 354.171875 37.5 L 354.171875 346.207031 L 45.464844 346.207031 Z M 45.464844 37.5 " clip-rule="nonzero"/></clipPath><clipPath id="92c55fc1e7"><path d="M 199.820312 37.5 C 114.570312 37.5 45.464844 106.605469 45.464844 191.851562 C 45.464844 277.101562 114.570312 346.207031 199.820312 346.207031 C 285.066406 346.207031 354.171875 277.101562 354.171875 191.851562 C 354.171875 106.605469 285.066406 37.5 199.820312 37.5 Z M 199.820312 37.5 " clip-rule="nonzero"/></clipPath><clipPath id="475a6a963e"><path d="M 147.546875 132 L 196 132 L 196 170 L 147.546875 170 Z M 147.546875 132 " clip-rule="nonzero"/></clipPath><clipPath id="7e0ba4e796"><path d="M 147.546875 154 L 219 154 L 219 270 L 147.546875 270 Z M 147.546875 154 " clip-rule="nonzero"/></clipPath><clipPath id="96bd66ad76"><path d="M 216 156 L 271.296875 156 L 271.296875 247 L 216 247 Z M 216 156 " clip-rule="nonzero"/></clipPath></defs><g clip-path="url(#e894662e35)"><g clip-path="url(#17ce91f05f)"><path fill="#012032" d="M 45.464844 37.5 L 354.175781 37.5 L 354.175781 346.210938 L 45.464844 346.210938 Z M 45.464844 37.5 " fill-opacity="1" fill-rule="nonzero"/></g></g><g clip-path="url(#eae0a5adf7)"><g clip-path="url(#92c55fc1e7)"><path stroke-linecap="butt" transform="matrix(0.75, 0, 0, 0.75, 45.465078, 37.499998)" fill="none" stroke-linejoin="miter" d="M 205.806992 0.00000328333 C 92.140318 0.00000328333 -0.000312753 92.140634 -0.000312753 205.8021 C -0.000312753 319.468774 92.140318 411.609405 205.806992 411.609405 C 319.468458 411.609405 411.609089 319.468774 411.609089 205.8021 C 411.609089 92.140634 319.468458 0.00000328333 205.806992 0.00000328333 Z M 205.806992 0.00000328333 " stroke="#6ed0eb" stroke-width="10" stroke-opacity="1" stroke-miterlimit="4"/></g></g><g clip-path="url(#475a6a963e)"><path fill="#6ed0eb" d="M 195.28125 167.523438 L 181.933594 136.429688 L 181.054688 135.921875 C 174.144531 131.914062 165.625 131.914062 158.710938 135.921875 C 151.953125 139.839844 147.734375 147.003906 147.550781 154.8125 C 162.828125 155.332031 176.917969 160.535156 188.445312 169.042969 C 190.675781 168.300781 192.957031 167.792969 195.28125 167.523438 " fill-opacity="1" fill-rule="nonzero"/></g><g clip-path="url(#7e0ba4e796)"><path fill="#51ade5" d="M 212.675781 233.039062 C 208.375 234.898438 203.835938 235.84375 199.183594 235.84375 C 185.535156 235.84375 173.226562 227.714844 167.824219 215.132812 C 164.21875 206.730469 164.085938 197.417969 167.453125 188.914062 C 170.824219 180.410156 177.289062 173.730469 185.660156 170.109375 C 186.578125 169.710938 187.507812 169.359375 188.445312 169.042969 C 176.917969 160.535156 162.828125 155.332031 147.550781 154.8125 C 147.546875 154.988281 147.542969 155.167969 147.542969 155.347656 L 147.542969 247.003906 C 147.542969 255.015625 151.800781 262.421875 158.710938 266.425781 C 165.625 270.433594 174.144531 270.433594 181.054688 266.425781 L 216.296875 246.003906 C 217.558594 240.828125 218.273438 235.441406 218.382812 229.898438 C 216.601562 231.113281 214.695312 232.164062 212.675781 233.039062 " fill-opacity="1" fill-rule="nonzero"/></g><g clip-path="url(#96bd66ad76)"><path fill="#6ed0eb" d="M 260.125 181.75 L 217.125 156.828125 L 230.511719 188.011719 C 234.121094 196.417969 234.253906 205.730469 230.882812 214.234375 C 228.328125 220.6875 223.984375 226.089844 218.382812 229.898438 C 218.273438 235.441406 217.558594 240.828125 216.296875 246.003906 L 260.125 220.601562 C 267.042969 216.59375 271.296875 209.1875 271.296875 201.175781 C 271.296875 193.160156 267.042969 185.757812 260.125 181.75 " fill-opacity="1" fill-rule="nonzero"/></g><path fill="#e61c58" d="M 174.609375 212.195312 C 180.457031 225.8125 196.191406 232.09375 209.753906 226.226562 C 212.917969 224.855469 215.683594 222.945312 217.992188 220.648438 C 216.121094 202.726562 207.847656 186.722656 195.507812 174.972656 C 193.179688 175.300781 190.851562 175.941406 188.585938 176.921875 C 175.023438 182.789062 168.765625 198.582031 174.609375 212.195312 " fill-opacity="1" fill-rule="nonzero"/><path fill="#f24e90" d="M 217.992188 220.648438 C 225.574219 213.105469 228.207031 201.386719 223.726562 190.949219 L 201.839844 139.9375 C 244.089844 123.839844 254.460938 164.0625 254.460938 164.0625 C 254.460938 164.0625 255 140.171875 236.359375 127.851562 C 212.828125 112.300781 185.167969 125.203125 185.167969 125.203125 L 194.148438 146.121094 L 206.914062 175.878906 C 203.273438 174.769531 199.382812 174.4375 195.507812 174.972656 C 207.847656 186.722656 216.121094 202.726562 217.992188 220.648438 " fill-opacity="1" fill-rule="nonzero"/></svg>