<svg xmlns="http://www.w3.org/2000/svg" xmlns:xlink="http://www.w3.org/1999/xlink" width="500" zoomAndPan="magnify" viewBox="0 0 375 374.999991" height="500" preserveAspectRatio="xMidYMid meet" version="1.0"><defs><clipPath id="12f402a1f0"><path d="M 33.144531 36.894531 L 341.855469 36.894531 L 341.855469 345.605469 L 33.144531 345.605469 Z M 33.144531 36.894531 " clip-rule="nonzero"/></clipPath><clipPath id="6983396f50"><path d="M 187.5 36.894531 C 102.25 36.894531 33.144531 106 33.144531 191.25 C 33.144531 276.5 102.25 345.605469 187.5 345.605469 C 272.75 345.605469 341.855469 276.5 341.855469 191.25 C 341.855469 106 272.75 36.894531 187.5 36.894531 Z M 187.5 36.894531 " clip-rule="nonzero"/></clipPath><clipPath id="3d51b84fda"><path d="M 33.144531 36.894531 L 341.851562 36.894531 L 341.851562 345.601562 L 33.144531 345.601562 Z M 33.144531 36.894531 " clip-rule="nonzero"/></clipPath><clipPath id="e52bbf052c"><path d="M 187.5 36.894531 C 102.25 36.894531 33.144531 106 33.144531 191.25 C 33.144531 276.496094 102.25 345.601562 187.5 345.601562 C 272.746094 345.601562 341.851562 276.496094 341.851562 191.25 C 341.851562 106 272.746094 36.894531 187.5 36.894531 Z M 187.5 36.894531 " clip-rule="nonzero"/></clipPath><clipPath id="81c5ae236e"><path d="M 136.320312 132 L 185 132 L 185 170 L 136.320312 170 Z M 136.320312 132 " clip-rule="nonzero"/></clipPath><clipPath id="d419078423"><path d="M 136.320312 154 L 208 154 L 208 270 L 136.320312 270 Z M 136.320312 154 " clip-rule="nonzero"/></clipPath><clipPath id="0e5aa6ef23"><path d="M 205 156 L 260.070312 156 L 260.070312 247 L 205 247 Z M 205 156 " clip-rule="nonzero"/></clipPath></defs><g clip-path="url(#12f402a1f0)"><g clip-path="url(#6983396f50)"><path fill="#012032" d="M 33.144531 36.894531 L 341.855469 36.894531 L 341.855469 345.605469 L 33.144531 345.605469 Z M 33.144531 36.894531 " fill-opacity="1" fill-rule="nonzero"/></g></g><g clip-path="url(#3d51b84fda)"><g clip-path="url(#e52bbf052c)"><path stroke-linecap="butt" transform="matrix(0.75, 0, 0, 0.75, 33.144553, 36.894548)" fill="none" stroke-linejoin="miter" d="M 205.807276 -0.0000228363 C 92.140602 -0.0000228363 -0.0000291647 92.140608 -0.0000291647 205.807282 C -0.0000291647 319.468748 92.140602 411.609379 205.807276 411.609379 C 319.468742 411.609379 411.609373 319.468748 411.609373 205.807282 C 411.609373 92.140608 319.468742 -0.0000228363 205.807276 -0.0000228363 Z M 205.807276 -0.0000228363 " stroke="#6ed0eb" stroke-width="10" stroke-opacity="1" stroke-miterlimit="4"/></g></g><g clip-path="url(#81c5ae236e)"><path fill="#6ed0eb" d="M 184.054688 167.523438 L 170.707031 136.429688 L 169.832031 135.921875 C 162.917969 131.914062 154.402344 131.914062 147.488281 135.921875 C 140.730469 139.839844 136.511719 147.003906 136.324219 154.8125 C 151.601562 155.332031 165.695312 160.535156 177.21875 169.042969 C 179.449219 168.300781 181.734375 167.792969 184.054688 167.523438 " fill-opacity="1" fill-rule="nonzero"/></g><g clip-path="url(#d419078423)"><path fill="#51ade5" d="M 201.453125 233.039062 C 197.152344 234.898438 192.609375 235.84375 187.957031 235.84375 C 174.308594 235.84375 162 227.714844 156.601562 215.132812 C 152.992188 206.730469 152.859375 197.417969 156.230469 188.914062 C 159.597656 180.410156 166.0625 173.730469 174.4375 170.109375 C 175.355469 169.710938 176.28125 169.359375 177.21875 169.042969 C 165.695312 160.535156 151.601562 155.332031 136.324219 154.8125 C 136.320312 154.988281 136.316406 155.167969 136.316406 155.347656 L 136.316406 247.003906 C 136.316406 255.015625 140.574219 262.421875 147.488281 266.425781 C 154.402344 270.433594 162.917969 270.433594 169.832031 266.425781 L 205.070312 246.003906 C 206.332031 240.828125 207.046875 235.441406 207.15625 229.898438 C 205.375 231.113281 203.46875 232.164062 201.453125 233.039062 " fill-opacity="1" fill-rule="nonzero"/></g><g clip-path="url(#0e5aa6ef23)"><path fill="#6ed0eb" d="M 248.902344 181.75 L 205.898438 156.828125 L 219.289062 188.011719 C 222.894531 196.417969 223.027344 205.730469 219.660156 214.234375 C 217.101562 220.6875 212.761719 226.089844 207.15625 229.898438 C 207.046875 235.441406 206.332031 240.828125 205.070312 246.003906 L 248.902344 220.601562 C 255.816406 216.59375 260.074219 209.1875 260.074219 201.175781 C 260.074219 193.160156 255.816406 185.757812 248.902344 181.75 " fill-opacity="1" fill-rule="nonzero"/></g><path fill="#e61c58" d="M 163.386719 212.195312 C 169.230469 225.8125 184.964844 232.09375 198.527344 226.226562 C 201.691406 224.855469 204.460938 222.945312 206.769531 220.648438 C 204.894531 202.726562 196.621094 186.722656 184.285156 174.972656 C 181.953125 175.300781 179.625 175.941406 177.359375 176.921875 C 163.796875 182.789062 157.539062 198.582031 163.386719 212.195312 " fill-opacity="1" fill-rule="nonzero"/><path fill="#f24e90" d="M 206.769531 220.648438 C 214.351562 213.105469 216.984375 201.386719 212.503906 190.949219 L 190.613281 139.9375 C 232.867188 123.839844 243.238281 164.0625 243.238281 164.0625 C 243.238281 164.0625 243.773438 140.171875 225.136719 127.851562 C 201.601562 112.300781 173.941406 125.203125 173.941406 125.203125 L 182.921875 146.121094 L 195.6875 175.878906 C 192.046875 174.769531 188.160156 174.4375 184.285156 174.972656 C 196.621094 186.722656 204.894531 202.726562 206.769531 220.648438 " fill-opacity="1" fill-rule="nonzero"/></svg>