<svg xmlns="http://www.w3.org/2000/svg" xmlns:xlink="http://www.w3.org/1999/xlink" width="500" zoomAndPan="magnify" viewBox="0 0 375 374.999991" height="500" preserveAspectRatio="xMidYMid meet" version="1.0"><defs><g/><clipPath id="e9a8577759"><path d="M 110.738281 102.773438 L 297.089844 102.773438 L 297.089844 289.121094 L 110.738281 289.121094 Z M 110.738281 102.773438 " clip-rule="nonzero"/></clipPath><clipPath id="cca32395d1"><path d="M 203.914062 102.773438 C 152.457031 102.773438 110.738281 144.492188 110.738281 195.949219 C 110.738281 247.40625 152.457031 289.121094 203.914062 289.121094 C 255.371094 289.121094 297.089844 247.40625 297.089844 195.949219 C 297.089844 144.492188 255.371094 102.773438 203.914062 102.773438 Z M 203.914062 102.773438 " clip-rule="nonzero"/></clipPath><clipPath id="9adda79cd8"><path d="M 110.738281 102.773438 L 296.738281 102.773438 L 296.738281 288.773438 L 110.738281 288.773438 Z M 110.738281 102.773438 " clip-rule="nonzero"/></clipPath><clipPath id="dd8dfaaedb"><path d="M 203.910156 102.773438 C 152.453125 102.773438 110.738281 144.488281 110.738281 195.945312 C 110.738281 247.402344 152.453125 289.113281 203.910156 289.113281 C 255.367188 289.113281 297.078125 247.402344 297.078125 195.945312 C 297.078125 144.488281 255.367188 102.773438 203.910156 102.773438 Z M 203.910156 102.773438 " clip-rule="nonzero"/></clipPath><clipPath id="d347a4afb6"><path d="M 168.074219 154 L 200 154 L 200 179 L 168.074219 179 Z M 168.074219 154 " clip-rule="nonzero"/></clipPath><clipPath id="5721dffbf5"><path d="M 168.074219 168 L 216 168 L 216 245 L 168.074219 245 Z M 168.074219 168 " clip-rule="nonzero"/></clipPath><clipPath id="f3d7875dc4"><path d="M 213 169 L 250.574219 169 L 250.574219 230 L 213 230 Z M 213 169 " clip-rule="nonzero"/></clipPath><clipPath id="13152f6bf2"><path d="M 25.878906 117.523438 L 70.878906 117.523438 L 70.878906 166.273438 L 25.878906 166.273438 Z M 25.878906 117.523438 " clip-rule="nonzero"/></clipPath></defs><g clip-path="url(#e9a8577759)"><g clip-path="url(#cca32395d1)"><path fill="#012032" d="M 110.738281 102.773438 L 297.089844 102.773438 L 297.089844 289.121094 L 110.738281 289.121094 Z M 110.738281 102.773438 " fill-opacity="1" fill-rule="nonzero"/></g></g><g clip-path="url(#9adda79cd8)"><g clip-path="url(#dd8dfaaedb)"><path stroke-linecap="butt" transform="matrix(0.75, 0, 0, 0.75, 110.740214, 102.775138)" fill="none" stroke-linejoin="miter" d="M 124.226598 -0.0022674 C 55.617218 -0.0022674 -0.00257704 55.617528 -0.00257704 124.226907 C -0.00257704 192.836287 55.617218 248.450874 124.226598 248.450874 C 192.835977 248.450874 248.450564 192.836287 248.450564 124.226907 C 248.450564 55.617528 192.835977 -0.0022674 124.226598 -0.0022674 Z M 124.226598 -0.0022674 " stroke="#7ce3ff" stroke-width="10" stroke-opacity="1" stroke-miterlimit="4"/></g></g><g clip-path="url(#d347a4afb6)"><path fill="#6ed0eb" d="M 199.898438 177.09375 L 191 156.460938 L 190.417969 156.125 C 185.808594 153.46875 180.128906 153.46875 175.519531 156.125 C 171.015625 158.726562 168.203125 163.480469 168.078125 168.65625 C 178.265625 169.003906 187.660156 172.457031 195.34375 178.101562 C 196.828125 177.609375 198.351562 177.269531 199.898438 177.09375 " fill-opacity="1" fill-rule="nonzero"/></g><g clip-path="url(#5721dffbf5)"><path fill="#51ade5" d="M 211.496094 220.558594 C 208.628906 221.792969 205.601562 222.417969 202.5 222.417969 C 193.402344 222.417969 185.195312 217.027344 181.59375 208.679688 C 179.191406 203.105469 179.101562 196.925781 181.347656 191.28125 C 183.59375 185.640625 187.90625 181.210938 193.488281 178.808594 C 194.097656 178.542969 194.71875 178.308594 195.34375 178.101562 C 187.660156 172.457031 178.265625 169.003906 168.078125 168.65625 C 168.078125 168.777344 168.074219 168.894531 168.074219 169.011719 L 168.074219 229.824219 C 168.074219 235.140625 170.914062 240.054688 175.519531 242.710938 C 180.128906 245.367188 185.808594 245.367188 190.417969 242.710938 L 213.910156 229.160156 C 214.75 225.726562 215.226562 222.152344 215.300781 218.476562 C 214.113281 219.28125 212.84375 219.980469 211.496094 220.558594 " fill-opacity="1" fill-rule="nonzero"/></g><g clip-path="url(#f3d7875dc4)"><path fill="#6ed0eb" d="M 243.128906 186.53125 L 214.460938 169.996094 L 223.386719 190.6875 C 225.792969 196.261719 225.878906 202.441406 223.636719 208.082031 C 221.929688 212.363281 219.035156 215.949219 215.300781 218.476562 C 215.226562 222.152344 214.75 225.726562 213.910156 229.160156 L 243.128906 212.304688 C 247.738281 209.648438 250.578125 204.734375 250.578125 199.417969 C 250.578125 194.101562 247.738281 189.1875 243.128906 186.53125 " fill-opacity="1" fill-rule="nonzero"/></g><path fill="#e61c58" d="M 186.121094 206.730469 C 190.015625 215.765625 200.503906 219.933594 209.546875 216.039062 C 211.65625 215.128906 213.503906 213.863281 215.042969 212.339844 C 213.792969 200.449219 208.277344 189.828125 200.050781 182.035156 C 198.496094 182.25 196.945312 182.675781 195.4375 183.328125 C 186.394531 187.21875 182.222656 197.699219 186.121094 206.730469 " fill-opacity="1" fill-rule="nonzero"/><path fill="#f24e90" d="M 215.042969 212.339844 C 220.097656 207.332031 221.851562 199.558594 218.863281 192.632812 L 204.269531 158.789062 C 232.441406 148.109375 239.355469 174.796875 239.355469 174.796875 C 239.355469 174.796875 239.710938 158.945312 227.285156 150.773438 C 211.597656 140.453125 193.15625 149.015625 193.15625 149.015625 L 199.144531 162.890625 L 207.65625 182.636719 C 205.226562 181.902344 202.636719 181.679688 200.050781 182.035156 C 208.277344 189.828125 213.792969 200.449219 215.042969 212.339844 " fill-opacity="1" fill-rule="nonzero"/><g clip-path="url(#13152f6bf2)"><path fill="#ffffff" d="M 41.195312 123.070312 L 25.878906 123.070312 L 25.878906 117.539062 L 46.730469 117.539062 L 46.730469 138.390625 L 41.195312 138.390625 Z M 50.261719 156.378906 C 50.261719 158.679688 48.386719 160.554688 46.082031 160.554688 C 43.78125 160.554688 41.90625 158.679688 41.90625 156.378906 C 41.90625 154.074219 43.78125 152.199219 46.082031 152.199219 L 50.261719 152.199219 Z M 50.261719 117.539062 L 50.261719 146.667969 L 46.082031 146.667969 C 40.730469 146.667969 36.375 151.023438 36.375 156.378906 C 36.375 161.730469 40.730469 166.085938 46.082031 166.085938 C 51.4375 166.085938 55.792969 161.730469 55.792969 156.378906 L 55.792969 123.070312 L 71.113281 123.070312 L 71.113281 117.539062 L 50.261719 117.539062 " fill-opacity="1" fill-rule="nonzero"/></g><g fill="#ffffff" fill-opacity="1"><g transform="translate(89.059968, 53.872119)"><g><path d="M 3.453125 0 L 3.453125 -24.796875 L 7.25 -24.796875 L 7.5 -20.34375 C 8.300781 -21.914062 9.453125 -23.148438 10.953125 -24.046875 C 12.453125 -24.953125 14.148438 -25.40625 16.046875 -25.40625 C 18.984375 -25.40625 21.328125 -24.507812 23.078125 -22.71875 C 24.828125 -20.9375 25.703125 -18.195312 25.703125 -14.5 L 25.703125 0 L 21.5 0 L 21.5 -14.046875 C 21.5 -19.210938 19.363281 -21.796875 15.09375 -21.796875 C 12.96875 -21.796875 11.195312 -21.019531 9.78125 -19.46875 C 8.363281 -17.925781 7.65625 -15.71875 7.65625 -12.84375 L 7.65625 0 Z M 3.453125 0 "/></g></g></g><g fill="#ffffff" fill-opacity="1"><g transform="translate(117.657326, 53.872119)"><g><path d="M 6 -30.296875 C 5.164062 -30.296875 4.472656 -30.570312 3.921875 -31.125 C 3.367188 -31.675781 3.09375 -32.367188 3.09375 -33.203125 C 3.09375 -34.003906 3.367188 -34.671875 3.921875 -35.203125 C 4.472656 -35.734375 5.164062 -36 6 -36 C 6.800781 -36 7.484375 -35.734375 8.046875 -35.203125 C 8.617188 -34.671875 8.90625 -34.003906 8.90625 -33.203125 C 8.90625 -32.367188 8.617188 -31.675781 8.046875 -31.125 C 7.484375 -30.570312 6.800781 -30.296875 6 -30.296875 Z M 3.90625 0 L 3.90625 -24.796875 L 8.09375 -24.796875 L 8.09375 0 Z M 3.90625 0 "/></g></g></g><g fill="#ffffff" fill-opacity="1"><g transform="translate(129.606222, 53.872119)"><g><path d="M 4.796875 0 L 4.796875 -21.25 L 1.046875 -21.25 L 1.046875 -24.796875 L 4.796875 -24.796875 L 4.796875 -29.09375 C 4.796875 -31.5 5.394531 -33.25 6.59375 -34.34375 C 7.800781 -35.445312 9.550781 -36 11.84375 -36 L 14.34375 -36 L 14.34375 -32.40625 L 12.5 -32.40625 C 11.226562 -32.40625 10.328125 -32.144531 9.796875 -31.625 C 9.265625 -31.101562 9 -30.226562 9 -29 L 9 -24.796875 L 15.09375 -24.796875 L 15.09375 -21.25 L 9 -21.25 L 9 0 Z M 4.796875 0 "/></g></g></g><g fill="#ffffff" fill-opacity="1"><g transform="translate(146.254683, 53.872119)"><g><path d="M 6.15625 11 L 12.296875 -2.40625 L 10.84375 -2.40625 L 1 -24.796875 L 5.546875 -24.796875 L 13.75 -5.5 L 22.453125 -24.796875 L 26.796875 -24.796875 L 10.546875 11 Z M 6.15625 11 "/></g></g></g></svg>