<svg xmlns="http://www.w3.org/2000/svg" xmlns:xlink="http://www.w3.org/1999/xlink" width="500" zoomAndPan="magnify" viewBox="0 0 375 374.999991" height="500" preserveAspectRatio="xMidYMid meet" version="1.0"><defs><g/><clipPath id="7e164136e2"><path d="M 119.714844 149.691406 L 291.660156 149.691406 L 291.660156 242.207031 L 119.714844 242.207031 Z M 119.714844 149.691406 " clip-rule="nonzero"/></clipPath><clipPath id="2e9b7fbcbb"><path d="M 136.964844 149.691406 L 274.410156 149.691406 C 278.984375 149.691406 283.371094 151.507812 286.605469 154.742188 C 289.84375 157.976562 291.660156 162.367188 291.660156 166.941406 L 291.660156 224.957031 C 291.660156 229.53125 289.84375 233.921875 286.605469 237.15625 C 283.371094 240.390625 278.984375 242.207031 274.410156 242.207031 L 136.964844 242.207031 C 132.390625 242.207031 128.003906 240.390625 124.769531 237.15625 C 121.535156 233.921875 119.714844 229.53125 119.714844 224.957031 L 119.714844 166.941406 C 119.714844 162.367188 121.535156 157.976562 124.769531 154.742188 C 128.003906 151.507812 132.390625 149.691406 136.964844 149.691406 Z M 136.964844 149.691406 " clip-rule="nonzero"/></clipPath><clipPath id="d02d80a72a"><path d="M 167.621094 188 L 177 188 L 177 196 L 167.621094 196 Z M 167.621094 188 " clip-rule="nonzero"/></clipPath><clipPath id="de2816b642"><path d="M 167.621094 193 L 181 193 L 181 215 L 167.621094 215 Z M 167.621094 193 " clip-rule="nonzero"/></clipPath><clipPath id="19b6b82672"><path d="M 180 193 L 190.871094 193 L 190.871094 211 L 180 211 Z M 180 193 " clip-rule="nonzero"/></clipPath><clipPath id="03014ed82a"><path d="M 132.722656 166.105469 L 177.722656 166.105469 L 177.722656 214.855469 L 132.722656 214.855469 Z M 132.722656 166.105469 " clip-rule="nonzero"/></clipPath></defs><g clip-path="url(#7e164136e2)"><g clip-path="url(#2e9b7fbcbb)"><path fill="#012032" d="M 119.714844 149.691406 L 291.660156 149.691406 L 291.660156 242.207031 L 119.714844 242.207031 Z M 119.714844 149.691406 " fill-opacity="1" fill-rule="nonzero"/></g></g><g clip-path="url(#d02d80a72a)"><path fill="#6ed0eb" d="M 176.585938 195.53125 L 174.078125 189.636719 L 173.914062 189.539062 C 172.617188 188.78125 171.015625 188.78125 169.71875 189.539062 C 168.449219 190.28125 167.65625 191.640625 167.621094 193.121094 C 170.492188 193.21875 173.136719 194.207031 175.304688 195.816406 C 175.722656 195.675781 176.152344 195.582031 176.585938 195.53125 " fill-opacity="1" fill-rule="nonzero"/></g><g clip-path="url(#de2816b642)"><path fill="#51ade5" d="M 179.855469 207.949219 C 179.046875 208.300781 178.195312 208.480469 177.320312 208.480469 C 174.757812 208.480469 172.445312 206.9375 171.429688 204.554688 C 170.75 202.960938 170.726562 201.195312 171.359375 199.585938 C 171.992188 197.972656 173.207031 196.707031 174.78125 196.019531 C 174.953125 195.945312 175.128906 195.878906 175.304688 195.816406 C 173.136719 194.207031 170.492188 193.21875 167.621094 193.121094 C 167.621094 193.152344 167.617188 193.1875 167.617188 193.222656 L 167.617188 210.59375 C 167.617188 212.113281 168.417969 213.515625 169.71875 214.277344 C 171.015625 215.035156 172.617188 215.035156 173.914062 214.277344 L 180.535156 210.40625 C 180.773438 209.425781 180.90625 208.402344 180.929688 207.351562 C 180.59375 207.582031 180.234375 207.78125 179.855469 207.949219 " fill-opacity="1" fill-rule="nonzero"/></g><g clip-path="url(#19b6b82672)"><path fill="#6ed0eb" d="M 188.769531 198.226562 L 180.691406 193.503906 L 183.207031 199.414062 C 183.886719 201.007812 183.910156 202.773438 183.277344 204.382812 C 182.796875 205.605469 181.980469 206.628906 180.929688 207.351562 C 180.90625 208.402344 180.773438 209.425781 180.535156 210.40625 L 188.769531 205.589844 C 190.070312 204.832031 190.871094 203.425781 190.871094 201.910156 C 190.871094 200.390625 190.070312 198.984375 188.769531 198.226562 " fill-opacity="1" fill-rule="nonzero"/></g><path fill="#e61c58" d="M 172.703125 203.996094 C 173.800781 206.578125 176.757812 207.769531 179.308594 206.65625 C 179.902344 206.398438 180.421875 206.035156 180.855469 205.601562 C 180.503906 202.203125 178.949219 199.167969 176.628906 196.941406 C 176.191406 197.003906 175.753906 197.125 175.328125 197.3125 C 172.78125 198.421875 171.605469 201.417969 172.703125 203.996094 " fill-opacity="1" fill-rule="nonzero"/><path fill="#f24e90" d="M 180.855469 205.601562 C 182.28125 204.167969 182.773438 201.949219 181.933594 199.96875 L 177.820312 190.300781 C 185.757812 187.25 187.707031 194.875 187.707031 194.875 C 187.707031 194.875 187.808594 190.34375 184.304688 188.011719 C 179.882812 185.0625 174.6875 187.507812 174.6875 187.507812 L 176.375 191.472656 L 178.773438 197.113281 C 178.089844 196.902344 177.359375 196.839844 176.628906 196.941406 C 178.949219 199.167969 180.503906 202.203125 180.855469 205.601562 " fill-opacity="1" fill-rule="nonzero"/><g clip-path="url(#03014ed82a)"><path fill="#6ed0eb" d="M 148.039062 171.652344 L 132.722656 171.652344 L 132.722656 166.117188 L 153.574219 166.117188 L 153.574219 186.96875 L 148.039062 186.96875 Z M 157.105469 204.957031 C 157.105469 207.261719 155.230469 209.132812 152.925781 209.132812 C 150.625 209.132812 148.75 207.261719 148.75 204.957031 C 148.75 202.65625 150.625 200.78125 152.925781 200.78125 L 157.105469 200.78125 Z M 157.105469 166.117188 L 157.105469 195.25 L 152.925781 195.25 C 147.574219 195.25 143.21875 199.605469 143.21875 204.957031 C 143.21875 210.3125 147.574219 214.667969 152.925781 214.667969 C 158.28125 214.667969 162.636719 210.3125 162.636719 204.957031 L 162.636719 171.652344 L 177.957031 171.652344 L 177.957031 166.117188 L 157.105469 166.117188 " fill-opacity="1" fill-rule="nonzero"/></g><g fill="#ff00ff" fill-opacity="1"><g transform="translate(193.595321, 212.110243)"><g><path d="M 3.453125 0 L 3.453125 -24.796875 L 7.25 -24.796875 L 7.5 -20.34375 C 8.300781 -21.914062 9.453125 -23.148438 10.953125 -24.046875 C 12.453125 -24.953125 14.148438 -25.40625 16.046875 -25.40625 C 18.984375 -25.40625 21.328125 -24.507812 23.078125 -22.71875 C 24.828125 -20.9375 25.703125 -18.195312 25.703125 -14.5 L 25.703125 0 L 21.5 0 L 21.5 -14.046875 C 21.5 -19.210938 19.363281 -21.796875 15.09375 -21.796875 C 12.96875 -21.796875 11.195312 -21.019531 9.78125 -19.46875 C 8.363281 -17.925781 7.65625 -15.71875 7.65625 -12.84375 L 7.65625 0 Z M 3.453125 0 "/></g></g></g><g fill="#ff00ff" fill-opacity="1"><g transform="translate(222.192679, 212.110243)"><g><path d="M 6 -30.296875 C 5.164062 -30.296875 4.472656 -30.570312 3.921875 -31.125 C 3.367188 -31.675781 3.09375 -32.367188 3.09375 -33.203125 C 3.09375 -34.003906 3.367188 -34.671875 3.921875 -35.203125 C 4.472656 -35.734375 5.164062 -36 6 -36 C 6.800781 -36 7.484375 -35.734375 8.046875 -35.203125 C 8.617188 -34.671875 8.90625 -34.003906 8.90625 -33.203125 C 8.90625 -32.367188 8.617188 -31.675781 8.046875 -31.125 C 7.484375 -30.570312 6.800781 -30.296875 6 -30.296875 Z M 3.90625 0 L 3.90625 -24.796875 L 8.09375 -24.796875 L 8.09375 0 Z M 3.90625 0 "/></g></g></g><g fill="#ff00ff" fill-opacity="1"><g transform="translate(234.141575, 212.110243)"><g><path d="M 4.796875 0 L 4.796875 -21.25 L 1.046875 -21.25 L 1.046875 -24.796875 L 4.796875 -24.796875 L 4.796875 -29.09375 C 4.796875 -31.5 5.394531 -33.25 6.59375 -34.34375 C 7.800781 -35.445312 9.550781 -36 11.84375 -36 L 14.34375 -36 L 14.34375 -32.40625 L 12.5 -32.40625 C 11.226562 -32.40625 10.328125 -32.144531 9.796875 -31.625 C 9.265625 -31.101562 9 -30.226562 9 -29 L 9 -24.796875 L 15.09375 -24.796875 L 15.09375 -21.25 L 9 -21.25 L 9 0 Z M 4.796875 0 "/></g></g></g><g fill="#ff00ff" fill-opacity="1"><g transform="translate(250.790036, 212.110243)"><g><path d="M 6.15625 11 L 12.296875 -2.40625 L 10.84375 -2.40625 L 1 -24.796875 L 5.546875 -24.796875 L 13.75 -5.5 L 22.453125 -24.796875 L 26.796875 -24.796875 L 10.546875 11 Z M 6.15625 11 "/></g></g></g><g fill="#00ffff" fill-opacity="1"><g transform="translate(191.768427, 212.532029)"><g><path d="M 3.453125 0 L 3.453125 -24.796875 L 7.25 -24.796875 L 7.5 -20.34375 C 8.300781 -21.914062 9.453125 -23.148438 10.953125 -24.046875 C 12.453125 -24.953125 14.148438 -25.40625 16.046875 -25.40625 C 18.984375 -25.40625 21.328125 -24.507812 23.078125 -22.71875 C 24.828125 -20.9375 25.703125 -18.195312 25.703125 -14.5 L 25.703125 0 L 21.5 0 L 21.5 -14.046875 C 21.5 -19.210938 19.363281 -21.796875 15.09375 -21.796875 C 12.96875 -21.796875 11.195312 -21.019531 9.78125 -19.46875 C 8.363281 -17.925781 7.65625 -15.71875 7.65625 -12.84375 L 7.65625 0 Z M 3.453125 0 "/></g></g></g><g fill="#00ffff" fill-opacity="1"><g transform="translate(220.365785, 212.532029)"><g><path d="M 6 -30.296875 C 5.164062 -30.296875 4.472656 -30.570312 3.921875 -31.125 C 3.367188 -31.675781 3.09375 -32.367188 3.09375 -33.203125 C 3.09375 -34.003906 3.367188 -34.671875 3.921875 -35.203125 C 4.472656 -35.734375 5.164062 -36 6 -36 C 6.800781 -36 7.484375 -35.734375 8.046875 -35.203125 C 8.617188 -34.671875 8.90625 -34.003906 8.90625 -33.203125 C 8.90625 -32.367188 8.617188 -31.675781 8.046875 -31.125 C 7.484375 -30.570312 6.800781 -30.296875 6 -30.296875 Z M 3.90625 0 L 3.90625 -24.796875 L 8.09375 -24.796875 L 8.09375 0 Z M 3.90625 0 "/></g></g></g><g fill="#00ffff" fill-opacity="1"><g transform="translate(232.314681, 212.532029)"><g><path d="M 4.796875 0 L 4.796875 -21.25 L 1.046875 -21.25 L 1.046875 -24.796875 L 4.796875 -24.796875 L 4.796875 -29.09375 C 4.796875 -31.5 5.394531 -33.25 6.59375 -34.34375 C 7.800781 -35.445312 9.550781 -36 11.84375 -36 L 14.34375 -36 L 14.34375 -32.40625 L 12.5 -32.40625 C 11.226562 -32.40625 10.328125 -32.144531 9.796875 -31.625 C 9.265625 -31.101562 9 -30.226562 9 -29 L 9 -24.796875 L 15.09375 -24.796875 L 15.09375 -21.25 L 9 -21.25 L 9 0 Z M 4.796875 0 "/></g></g></g><g fill="#00ffff" fill-opacity="1"><g transform="translate(248.963142, 212.532029)"><g><path d="M 6.15625 11 L 12.296875 -2.40625 L 10.84375 -2.40625 L 1 -24.796875 L 5.546875 -24.796875 L 13.75 -5.5 L 22.453125 -24.796875 L 26.796875 -24.796875 L 10.546875 11 Z M 6.15625 11 "/></g></g></g><g fill="#f24e90" fill-opacity="1"><g transform="translate(192.681874, 212.321136)"><g><path d="M 3.453125 0 L 3.453125 -24.796875 L 7.25 -24.796875 L 7.5 -20.34375 C 8.300781 -21.914062 9.453125 -23.148438 10.953125 -24.046875 C 12.453125 -24.953125 14.148438 -25.40625 16.046875 -25.40625 C 18.984375 -25.40625 21.328125 -24.507812 23.078125 -22.71875 C 24.828125 -20.9375 25.703125 -18.195312 25.703125 -14.5 L 25.703125 0 L 21.5 0 L 21.5 -14.046875 C 21.5 -19.210938 19.363281 -21.796875 15.09375 -21.796875 C 12.96875 -21.796875 11.195312 -21.019531 9.78125 -19.46875 C 8.363281 -17.925781 7.65625 -15.71875 7.65625 -12.84375 L 7.65625 0 Z M 3.453125 0 "/></g></g></g><g fill="#f24e90" fill-opacity="1"><g transform="translate(221.279232, 212.321136)"><g><path d="M 6 -30.296875 C 5.164062 -30.296875 4.472656 -30.570312 3.921875 -31.125 C 3.367188 -31.675781 3.09375 -32.367188 3.09375 -33.203125 C 3.09375 -34.003906 3.367188 -34.671875 3.921875 -35.203125 C 4.472656 -35.734375 5.164062 -36 6 -36 C 6.800781 -36 7.484375 -35.734375 8.046875 -35.203125 C 8.617188 -34.671875 8.90625 -34.003906 8.90625 -33.203125 C 8.90625 -32.367188 8.617188 -31.675781 8.046875 -31.125 C 7.484375 -30.570312 6.800781 -30.296875 6 -30.296875 Z M 3.90625 0 L 3.90625 -24.796875 L 8.09375 -24.796875 L 8.09375 0 Z M 3.90625 0 "/></g></g></g><g fill="#f24e90" fill-opacity="1"><g transform="translate(233.228128, 212.321136)"><g><path d="M 4.796875 0 L 4.796875 -21.25 L 1.046875 -21.25 L 1.046875 -24.796875 L 4.796875 -24.796875 L 4.796875 -29.09375 C 4.796875 -31.5 5.394531 -33.25 6.59375 -34.34375 C 7.800781 -35.445312 9.550781 -36 11.84375 -36 L 14.34375 -36 L 14.34375 -32.40625 L 12.5 -32.40625 C 11.226562 -32.40625 10.328125 -32.144531 9.796875 -31.625 C 9.265625 -31.101562 9 -30.226562 9 -29 L 9 -24.796875 L 15.09375 -24.796875 L 15.09375 -21.25 L 9 -21.25 L 9 0 Z M 4.796875 0 "/></g></g></g><g fill="#f24e90" fill-opacity="1"><g transform="translate(249.876589, 212.321136)"><g><path d="M 6.15625 11 L 12.296875 -2.40625 L 10.84375 -2.40625 L 1 -24.796875 L 5.546875 -24.796875 L 13.75 -5.5 L 22.453125 -24.796875 L 26.796875 -24.796875 L 10.546875 11 Z M 6.15625 11 "/></g></g></g></svg>